<svg xmlns="http://www.w3.org/2000/svg" viewBox="0 0 960 420" font-family="'Inter', 'Segoe UI', system-ui, sans-serif">
  <defs>
    <filter id="sh" x="-4%" y="-6%" width="108%" height="116%">
      <feDropShadow dx="1" dy="2" stdDeviation="2" flood-color="#000" flood-opacity="0.15"/>
    </filter>
  </defs>

  <rect width="960" height="420" fill="#fff"/>

  <text x="480" y="28" text-anchor="middle" fill="#111827" font-size="18" font-weight="800">Attention Mask 机制详解</text>
  <text x="480" y="46" text-anchor="middle" fill="#4b5563" font-size="12" font-weight="500">同一个 Transformer · 改变 Mask 就变成不同角色</text>

  <!-- Code -->
  <rect x="220" y="56" width="520" height="58" rx="8" fill="#f3f4f6" stroke="#9ca3af" stroke-width="1.5"/>
  <text x="240" y="74" fill="#374151" font-size="10" font-family="monospace" font-weight="500">scores = Q @ K.T / √d</text>
  <text x="240" y="89" fill="#dc2626" font-size="10" font-family="monospace" font-weight="800">scores = scores + mask     ← Mask 在 softmax 之前！</text>
  <text x="240" y="104" fill="#374151" font-size="10" font-family="monospace" font-weight="500">weights = softmax(scores)  <tspan fill="#059669" font-weight="700"># -∞ → 变成 0</tspan></text>

  <!-- Mask 1 -->
  <g transform="translate(25, 130)">
    <rect width="290" height="270" rx="10" fill="#fff" stroke="#16a34a" stroke-width="3" filter="url(#sh)"/>
    <rect width="290" height="42" rx="10" fill="#16a34a"/>
    <rect y="30" width="290" height="12" fill="#16a34a"/>
    <text x="145" y="28" text-anchor="middle" fill="#fff" font-size="14" font-weight="800">Bi-directional Mask</text>
    <text x="145" y="60" text-anchor="middle" fill="#065f46" font-size="11" font-weight="700">图文匹配 (ITM) → 像 BERT Encoder</text>

    <text x="110" y="82" text-anchor="middle" fill="#374151" font-size="10" font-weight="700">Q₁</text>
    <text x="145" y="82" text-anchor="middle" fill="#374151" font-size="10" font-weight="700">Q₂</text>
    <text x="180" y="82" text-anchor="middle" fill="#374151" font-size="10" font-weight="700">T₁</text>
    <text x="215" y="82" text-anchor="middle" fill="#374151" font-size="10" font-weight="700">T₂</text>
    <text x="87" y="106" text-anchor="end" fill="#374151" font-size="10" font-weight="700">Q₁</text>
    <text x="87" y="141" text-anchor="end" fill="#374151" font-size="10" font-weight="700">Q₂</text>
    <text x="87" y="176" text-anchor="end" fill="#374151" font-size="10" font-weight="700">T₁</text>
    <text x="87" y="211" text-anchor="end" fill="#374151" font-size="10" font-weight="700">T₂</text>

    <!-- All green -->
    <rect x="95" y="90" width="30" height="30" rx="4" fill="#22c55e" stroke="#16a34a" stroke-width="1.5"/>
    <rect x="130" y="90" width="30" height="30" rx="4" fill="#22c55e" stroke="#16a34a" stroke-width="1.5"/>
    <rect x="165" y="90" width="30" height="30" rx="4" fill="#22c55e" stroke="#16a34a" stroke-width="1.5"/>
    <rect x="200" y="90" width="30" height="30" rx="4" fill="#22c55e" stroke="#16a34a" stroke-width="1.5"/>
    <rect x="95" y="125" width="30" height="30" rx="4" fill="#22c55e" stroke="#16a34a" stroke-width="1.5"/>
    <rect x="130" y="125" width="30" height="30" rx="4" fill="#22c55e" stroke="#16a34a" stroke-width="1.5"/>
    <rect x="165" y="125" width="30" height="30" rx="4" fill="#22c55e" stroke="#16a34a" stroke-width="1.5"/>
    <rect x="200" y="125" width="30" height="30" rx="4" fill="#22c55e" stroke="#16a34a" stroke-width="1.5"/>
    <rect x="95" y="160" width="30" height="30" rx="4" fill="#22c55e" stroke="#16a34a" stroke-width="1.5"/>
    <rect x="130" y="160" width="30" height="30" rx="4" fill="#22c55e" stroke="#16a34a" stroke-width="1.5"/>
    <rect x="165" y="160" width="30" height="30" rx="4" fill="#22c55e" stroke="#16a34a" stroke-width="1.5"/>
    <rect x="200" y="160" width="30" height="30" rx="4" fill="#22c55e" stroke="#16a34a" stroke-width="1.5"/>
    <rect x="95" y="195" width="30" height="30" rx="4" fill="#22c55e" stroke="#16a34a" stroke-width="1.5"/>
    <rect x="130" y="195" width="30" height="30" rx="4" fill="#22c55e" stroke="#16a34a" stroke-width="1.5"/>
    <rect x="165" y="195" width="30" height="30" rx="4" fill="#22c55e" stroke="#16a34a" stroke-width="1.5"/>
    <rect x="200" y="195" width="30" height="30" rx="4" fill="#22c55e" stroke="#16a34a" stroke-width="1.5"/>

    <text x="110" y="111" text-anchor="middle" fill="#fff" font-size="14" font-weight="800">✓</text>
    <text x="145" y="111" text-anchor="middle" fill="#fff" font-size="14" font-weight="800">✓</text>
    <text x="180" y="111" text-anchor="middle" fill="#fff" font-size="14" font-weight="800">✓</text>
    <text x="215" y="111" text-anchor="middle" fill="#fff" font-size="14" font-weight="800">✓</text>
    <text x="110" y="146" text-anchor="middle" fill="#fff" font-size="14" font-weight="800">✓</text>
    <text x="145" y="146" text-anchor="middle" fill="#fff" font-size="14" font-weight="800">✓</text>
    <text x="180" y="146" text-anchor="middle" fill="#fff" font-size="14" font-weight="800">✓</text>
    <text x="215" y="146" text-anchor="middle" fill="#fff" font-size="14" font-weight="800">✓</text>
    <text x="110" y="181" text-anchor="middle" fill="#fff" font-size="14" font-weight="800">✓</text>
    <text x="145" y="181" text-anchor="middle" fill="#fff" font-size="14" font-weight="800">✓</text>
    <text x="180" y="181" text-anchor="middle" fill="#fff" font-size="14" font-weight="800">✓</text>
    <text x="215" y="181" text-anchor="middle" fill="#fff" font-size="14" font-weight="800">✓</text>
    <text x="110" y="216" text-anchor="middle" fill="#fff" font-size="14" font-weight="800">✓</text>
    <text x="145" y="216" text-anchor="middle" fill="#fff" font-size="14" font-weight="800">✓</text>
    <text x="180" y="216" text-anchor="middle" fill="#fff" font-size="14" font-weight="800">✓</text>
    <text x="215" y="216" text-anchor="middle" fill="#fff" font-size="14" font-weight="800">✓</text>

    <text x="145" y="245" text-anchor="middle" fill="#065f46" font-size="11" font-weight="700">全部互相可见</text>
    <text x="145" y="260" text-anchor="middle" fill="#374151" font-size="10">Q 和 T 完全双向交互</text>
  </g>

  <!-- Mask 2 -->
  <g transform="translate(335, 130)">
    <rect width="290" height="270" rx="10" fill="#fff" stroke="#d97706" stroke-width="3" filter="url(#sh)"/>
    <rect width="290" height="42" rx="10" fill="#d97706"/>
    <rect y="30" width="290" height="12" fill="#d97706"/>
    <text x="145" y="28" text-anchor="middle" fill="#fff" font-size="14" font-weight="800">Multi-modal Causal Mask</text>
    <text x="145" y="60" text-anchor="middle" fill="#92400e" font-size="11" font-weight="700">条件生成 (ITG) → 像 GPT Decoder</text>

    <text x="110" y="82" text-anchor="middle" fill="#374151" font-size="10" font-weight="700">Q₁</text>
    <text x="145" y="82" text-anchor="middle" fill="#374151" font-size="10" font-weight="700">Q₂</text>
    <text x="180" y="82" text-anchor="middle" fill="#374151" font-size="10" font-weight="700">T₁</text>
    <text x="215" y="82" text-anchor="middle" fill="#374151" font-size="10" font-weight="700">T₂</text>
    <text x="87" y="106" text-anchor="end" fill="#374151" font-size="10" font-weight="700">Q₁</text>
    <text x="87" y="141" text-anchor="end" fill="#374151" font-size="10" font-weight="700">Q₂</text>
    <text x="87" y="176" text-anchor="end" fill="#374151" font-size="10" font-weight="700">T₁</text>
    <text x="87" y="211" text-anchor="end" fill="#374151" font-size="10" font-weight="700">T₂</text>

    <!-- R1 -->
    <rect x="95" y="90" width="30" height="30" rx="4" fill="#f59e0b" stroke="#d97706" stroke-width="1.5"/>
    <rect x="130" y="90" width="30" height="30" rx="4" fill="#f59e0b" stroke="#d97706" stroke-width="1.5"/>
    <rect x="165" y="90" width="30" height="30" rx="4" fill="#e5e7eb" stroke="#d1d5db" stroke-width="1.5"/>
    <rect x="200" y="90" width="30" height="30" rx="4" fill="#e5e7eb" stroke="#d1d5db" stroke-width="1.5"/>
    <text x="110" y="111" text-anchor="middle" fill="#fff" font-size="14" font-weight="800">✓</text>
    <text x="145" y="111" text-anchor="middle" fill="#fff" font-size="14" font-weight="800">✓</text>
    <text x="180" y="111" text-anchor="middle" fill="#9ca3af" font-size="14" font-weight="800">✗</text>
    <text x="215" y="111" text-anchor="middle" fill="#9ca3af" font-size="14" font-weight="800">✗</text>
    <!-- R2 -->
    <rect x="95" y="125" width="30" height="30" rx="4" fill="#f59e0b" stroke="#d97706" stroke-width="1.5"/>
    <rect x="130" y="125" width="30" height="30" rx="4" fill="#f59e0b" stroke="#d97706" stroke-width="1.5"/>
    <rect x="165" y="125" width="30" height="30" rx="4" fill="#e5e7eb" stroke="#d1d5db" stroke-width="1.5"/>
    <rect x="200" y="125" width="30" height="30" rx="4" fill="#e5e7eb" stroke="#d1d5db" stroke-width="1.5"/>
    <text x="110" y="146" text-anchor="middle" fill="#fff" font-size="14" font-weight="800">✓</text>
    <text x="145" y="146" text-anchor="middle" fill="#fff" font-size="14" font-weight="800">✓</text>
    <text x="180" y="146" text-anchor="middle" fill="#9ca3af" font-size="14" font-weight="800">✗</text>
    <text x="215" y="146" text-anchor="middle" fill="#9ca3af" font-size="14" font-weight="800">✗</text>
    <!-- R3 -->
    <rect x="95" y="160" width="30" height="30" rx="4" fill="#f59e0b" stroke="#d97706" stroke-width="1.5"/>
    <rect x="130" y="160" width="30" height="30" rx="4" fill="#f59e0b" stroke="#d97706" stroke-width="1.5"/>
    <rect x="165" y="160" width="30" height="30" rx="4" fill="#f59e0b" stroke="#d97706" stroke-width="1.5"/>
    <rect x="200" y="160" width="30" height="30" rx="4" fill="#e5e7eb" stroke="#d1d5db" stroke-width="1.5"/>
    <text x="110" y="181" text-anchor="middle" fill="#fff" font-size="14" font-weight="800">✓</text>
    <text x="145" y="181" text-anchor="middle" fill="#fff" font-size="14" font-weight="800">✓</text>
    <text x="180" y="181" text-anchor="middle" fill="#fff" font-size="14" font-weight="800">✓</text>
    <text x="215" y="181" text-anchor="middle" fill="#9ca3af" font-size="14" font-weight="800">✗</text>
    <!-- R4 -->
    <rect x="95" y="195" width="30" height="30" rx="4" fill="#f59e0b" stroke="#d97706" stroke-width="1.5"/>
    <rect x="130" y="195" width="30" height="30" rx="4" fill="#f59e0b" stroke="#d97706" stroke-width="1.5"/>
    <rect x="165" y="195" width="30" height="30" rx="4" fill="#f59e0b" stroke="#d97706" stroke-width="1.5"/>
    <rect x="200" y="195" width="30" height="30" rx="4" fill="#f59e0b" stroke="#d97706" stroke-width="1.5"/>
    <text x="110" y="216" text-anchor="middle" fill="#fff" font-size="14" font-weight="800">✓</text>
    <text x="145" y="216" text-anchor="middle" fill="#fff" font-size="14" font-weight="800">✓</text>
    <text x="180" y="216" text-anchor="middle" fill="#fff" font-size="14" font-weight="800">✓</text>
    <text x="215" y="216" text-anchor="middle" fill="#fff" font-size="14" font-weight="800">✓</text>

    <text x="145" y="245" text-anchor="middle" fill="#92400e" font-size="11" font-weight="700">T 因果 mask（只看之前）</text>
    <text x="145" y="260" text-anchor="middle" fill="#374151" font-size="10">Q看不到T · T可看Q+之前的T</text>
  </g>

  <!-- Mask 3 -->
  <g transform="translate(645, 130)">
    <rect width="290" height="270" rx="10" fill="#fff" stroke="#7c3aed" stroke-width="3" filter="url(#sh)"/>
    <rect width="290" height="42" rx="10" fill="#7c3aed"/>
    <rect y="30" width="290" height="12" fill="#7c3aed"/>
    <text x="145" y="28" text-anchor="middle" fill="#fff" font-size="14" font-weight="800">Uni-modal Mask</text>
    <text x="145" y="60" text-anchor="middle" fill="#5b21b6" font-size="11" font-weight="700">对比学习 (ITC) → 像 CLIP 双塔</text>

    <text x="110" y="82" text-anchor="middle" fill="#374151" font-size="10" font-weight="700">Q₁</text>
    <text x="145" y="82" text-anchor="middle" fill="#374151" font-size="10" font-weight="700">Q₂</text>
    <text x="180" y="82" text-anchor="middle" fill="#374151" font-size="10" font-weight="700">T₁</text>
    <text x="215" y="82" text-anchor="middle" fill="#374151" font-size="10" font-weight="700">T₂</text>
    <text x="87" y="106" text-anchor="end" fill="#374151" font-size="10" font-weight="700">Q₁</text>
    <text x="87" y="141" text-anchor="end" fill="#374151" font-size="10" font-weight="700">Q₂</text>
    <text x="87" y="176" text-anchor="end" fill="#374151" font-size="10" font-weight="700">T₁</text>
    <text x="87" y="211" text-anchor="end" fill="#374151" font-size="10" font-weight="700">T₂</text>

    <!-- Q sees Q -->
    <rect x="95" y="90" width="30" height="30" rx="4" fill="#8b5cf6" stroke="#7c3aed" stroke-width="1.5"/>
    <rect x="130" y="90" width="30" height="30" rx="4" fill="#8b5cf6" stroke="#7c3aed" stroke-width="1.5"/>
    <rect x="165" y="90" width="30" height="30" rx="4" fill="#e5e7eb" stroke="#d1d5db" stroke-width="1.5"/>
    <rect x="200" y="90" width="30" height="30" rx="4" fill="#e5e7eb" stroke="#d1d5db" stroke-width="1.5"/>
    <text x="110" y="111" text-anchor="middle" fill="#fff" font-size="14" font-weight="800">✓</text>
    <text x="145" y="111" text-anchor="middle" fill="#fff" font-size="14" font-weight="800">✓</text>
    <text x="180" y="111" text-anchor="middle" fill="#9ca3af" font-size="14" font-weight="800">✗</text>
    <text x="215" y="111" text-anchor="middle" fill="#9ca3af" font-size="14" font-weight="800">✗</text>

    <rect x="95" y="125" width="30" height="30" rx="4" fill="#8b5cf6" stroke="#7c3aed" stroke-width="1.5"/>
    <rect x="130" y="125" width="30" height="30" rx="4" fill="#8b5cf6" stroke="#7c3aed" stroke-width="1.5"/>
    <rect x="165" y="125" width="30" height="30" rx="4" fill="#e5e7eb" stroke="#d1d5db" stroke-width="1.5"/>
    <rect x="200" y="125" width="30" height="30" rx="4" fill="#e5e7eb" stroke="#d1d5db" stroke-width="1.5"/>
    <text x="110" y="146" text-anchor="middle" fill="#fff" font-size="14" font-weight="800">✓</text>
    <text x="145" y="146" text-anchor="middle" fill="#fff" font-size="14" font-weight="800">✓</text>
    <text x="180" y="146" text-anchor="middle" fill="#9ca3af" font-size="14" font-weight="800">✗</text>
    <text x="215" y="146" text-anchor="middle" fill="#9ca3af" font-size="14" font-weight="800">✗</text>

    <!-- T sees T -->
    <rect x="95" y="160" width="30" height="30" rx="4" fill="#e5e7eb" stroke="#d1d5db" stroke-width="1.5"/>
    <rect x="130" y="160" width="30" height="30" rx="4" fill="#e5e7eb" stroke="#d1d5db" stroke-width="1.5"/>
    <rect x="165" y="160" width="30" height="30" rx="4" fill="#8b5cf6" stroke="#7c3aed" stroke-width="1.5"/>
    <rect x="200" y="160" width="30" height="30" rx="4" fill="#8b5cf6" stroke="#7c3aed" stroke-width="1.5"/>
    <text x="110" y="181" text-anchor="middle" fill="#9ca3af" font-size="14" font-weight="800">✗</text>
    <text x="145" y="181" text-anchor="middle" fill="#9ca3af" font-size="14" font-weight="800">✗</text>
    <text x="180" y="181" text-anchor="middle" fill="#fff" font-size="14" font-weight="800">✓</text>
    <text x="215" y="181" text-anchor="middle" fill="#fff" font-size="14" font-weight="800">✓</text>

    <rect x="95" y="195" width="30" height="30" rx="4" fill="#e5e7eb" stroke="#d1d5db" stroke-width="1.5"/>
    <rect x="130" y="195" width="30" height="30" rx="4" fill="#e5e7eb" stroke="#d1d5db" stroke-width="1.5"/>
    <rect x="165" y="195" width="30" height="30" rx="4" fill="#8b5cf6" stroke="#7c3aed" stroke-width="1.5"/>
    <rect x="200" y="195" width="30" height="30" rx="4" fill="#8b5cf6" stroke="#7c3aed" stroke-width="1.5"/>
    <text x="110" y="216" text-anchor="middle" fill="#9ca3af" font-size="14" font-weight="800">✗</text>
    <text x="145" y="216" text-anchor="middle" fill="#9ca3af" font-size="14" font-weight="800">✗</text>
    <text x="180" y="216" text-anchor="middle" fill="#fff" font-size="14" font-weight="800">✓</text>
    <text x="215" y="216" text-anchor="middle" fill="#fff" font-size="14" font-weight="800">✓</text>

    <text x="145" y="245" text-anchor="middle" fill="#5b21b6" font-size="11" font-weight="700">完全隔离</text>
    <text x="145" y="260" text-anchor="middle" fill="#374151" font-size="10">Q 和 T 各自独立编码</text>
  </g>
</svg>
